<?xml version="1.0" encoding="utf-8"?>
<!-- Generator: Adobe Illustrator 16.0.0, SVG Export Plug-In . SVG Version: 6.00 Build 0)  -->
<!DOCTYPE svg PUBLIC "-//W3C//DTD SVG 1.1//EN" "http://www.w3.org/Graphics/SVG/1.1/DTD/svg11.dtd">
<svg version="1.1" id="Слой_1" xmlns="http://www.w3.org/2000/svg" xmlns:xlink="http://www.w3.org/1999/xlink" x="0px" y="0px"
	 width="43.985px" height="32.993px" viewBox="0 0 43.985 32.993" enable-background="new 0 0 43.985 32.993" xml:space="preserve">
<path fill-rule="evenodd" clip-rule="evenodd" fill="#EF4445" d="M43.948,16.449V6.047c0-0.43-0.355-0.781-0.791-0.781h-15.04V0.778
	c0-0.43-0.353-0.778-0.788-0.778H0.791C0.355,0,0,0.348,0,0.778v26.192c0,0.433,0.355,0.78,0.791,0.78h2.667
	c0.436,0,0.791-0.348,0.791-0.78c0-0.432-0.355-0.781-0.791-0.781H1.578V1.557H26.54v4.491v15.098c0,0.429,0.355,0.781,0.791,0.781
	c0.435,0,0.788-0.352,0.788-0.781V6.826h6.338v9.715c0,0.43,0.352,0.779,0.788,0.779h7.126v8.87h-1.85
	c-0.436,0-0.788,0.349-0.788,0.781c0,0.433,0.352,0.78,0.788,0.78h2.638c0.436,0,0.791-0.348,0.791-0.78V16.63
	c0.003-0.036,0.037-0.054,0.037-0.089C43.985,16.505,43.951,16.485,43.948,16.449z M42.37,15.76h-6.338V6.826h6.338V15.76z"/>
<path fill-rule="evenodd" clip-rule="evenodd" fill="#EF4445" d="M32.595,20.956c-3.36,0-6.092,2.699-6.092,6.017
	c0,3.32,2.732,6.02,6.092,6.02c3.354,0,6.083-2.7,6.083-6.02C38.678,23.655,35.949,20.956,32.595,20.956z M32.595,31.433
	c-2.489,0-4.514-2-4.514-4.46c0-2.459,2.025-4.458,4.514-4.458c2.483,0,4.505,1.999,4.505,4.458
	C37.1,29.433,35.078,31.433,32.595,31.433z"/>
<path fill-rule="evenodd" clip-rule="evenodd" fill="#EF4445" d="M11.391,20.952c-3.36,0-6.089,2.7-6.089,6.019
	c0,3.321,2.729,6.019,6.089,6.019c3.356,0,6.089-2.698,6.089-6.019C17.48,23.652,14.748,20.952,11.391,20.952z M11.391,31.43
	c-2.489,0-4.514-2-4.514-4.459c0-2.459,2.025-4.456,4.514-4.456c2.486,0,4.511,1.997,4.511,4.456
	C15.902,29.43,13.877,31.43,11.391,31.43z"/>
<path fill="#EF4445" d="M24.661,26.19h-5.339c-0.435,0-0.788,0.349-0.788,0.781c0,0.433,0.353,0.78,0.788,0.78h5.339
	c0.436,0,0.788-0.348,0.788-0.78C25.448,26.539,25.096,26.19,24.661,26.19z"/>
</svg>
