<?xml version="1.0" encoding="utf-8"?>
<!-- Generator: Adobe Illustrator 16.0.0, SVG Export Plug-In . SVG Version: 6.00 Build 0)  -->
<!DOCTYPE svg PUBLIC "-//W3C//DTD SVG 1.1//EN" "http://www.w3.org/Graphics/SVG/1.1/DTD/svg11.dtd">
<svg version="1.1" id="Слой_1" xmlns="http://www.w3.org/2000/svg" xmlns:xlink="http://www.w3.org/1999/xlink" x="0px" y="0px"
	 width="40.087px" height="32.976px" viewBox="0 0 40.087 32.976" enable-background="new 0 0 40.087 32.976" xml:space="preserve">
<path fill-rule="evenodd" clip-rule="evenodd" fill="#EF4445" d="M40.087,10.419c0-0.031-0.026-0.047-0.031-0.078
	c-0.008-0.069,0.005-0.139-0.024-0.205l-4.119-9.697C35.8,0.175,35.537,0,35.245,0H4.846C4.554,0,4.291,0.175,4.177,0.439
	l-4.122,9.697c-0.029,0.066-0.016,0.136-0.026,0.205C0.026,10.373,0,10.388,0,10.419c0,0.014,0.016,0.026,0.016,0.042
	c0.01,0.158,0.055,0.309,0.163,0.434l19.32,21.833c0.016,0.019,0.045,0.011,0.061,0.031c0.053,0.046,0.095,0.088,0.158,0.122
	c0.014,0.006,0.016,0.028,0.034,0.034c0.095,0.04,0.195,0.061,0.29,0.061c0.098,0,0.198-0.021,0.292-0.061
	c0.018-0.006,0.021-0.028,0.034-0.037c0.063-0.031,0.105-0.073,0.155-0.119c0.019-0.02,0.047-0.011,0.063-0.031l19.32-21.833
	c0.108-0.125,0.156-0.276,0.166-0.434C40.072,10.446,40.087,10.434,40.087,10.419z M24.971,1.443l3.553,8.256H11.563l3.556-8.256
	H24.971z M28.514,11.141l-8.473,19.307l-8.468-19.307H28.514z M9.989,11.141l7.531,17.171L2.327,11.141H9.989z M30.099,11.141h7.66
	L22.565,28.309L30.099,11.141z M38.271,9.699h-8.17l-3.553-8.256h8.215L38.271,9.699z M5.325,1.443h8.22L9.989,9.699H1.816
	L5.325,1.443z"/>
</svg>
