<?xml version="1.0" encoding="utf-8"?>
<!DOCTYPE svg PUBLIC "-//W3C//DTD SVG 1.1//EN" "http://www.w3.org/Graphics/SVG/1.1/DTD/svg11.dtd">
<svg version="1.1" id="Слой_1" xmlns="http://www.w3.org/2000/svg" xmlns:xlink="http://www.w3.org/1999/xlink" x="0px" y="0px"
	 width="33px" height="33px" viewBox="0 0 33 33" enable-background="new 0 0 33 33" xml:space="preserve">
<g>
	<path fill="#EBEBEB" d="M7.085,0C3.179,0,0,3.179,0,7.086c0,3.908,3.179,7.088,7.085,7.088c3.908,0,7.088-3.18,7.088-7.088
		C33,3.179,10.994,0,7.085,0L7.085,0z M8.718,7.335H7.651v3.805H6.069V7.335H5.317V5.991h0.751V5.122
		c0-0.623,0.296-1.596,1.597-1.596L8.836,3.53v1.305H7.986c-0.139,0-0.335,0.069-0.335,0.366v0.791h1.204L8.718,7.335z M8.718,7.335
		"/>
</g>
<g>
</g>
<g>
</g>
<g>
</g>
<g>
</g>
<g>
</g>
<g>
</g>
</svg>
