<?xml version="1.0" encoding="utf-8"?>
<!-- Generator: Adobe Illustrator 16.0.0, SVG Export Plug-In . SVG Version: 6.00 Build 0)  -->
<!DOCTYPE svg PUBLIC "-//W3C//DTD SVG 1.1//EN" "http://www.w3.org/Graphics/SVG/1.1/DTD/svg11.dtd">
<svg version="1.1" id="Слой_1" xmlns="http://www.w3.org/2000/svg" xmlns:xlink="http://www.w3.org/1999/xlink" x="0px" y="0px"
	 width="14.174px" height="14.174px" viewBox="0 0 14.174 14.174" enable-background="new 0 0 14.174 14.174" xml:space="preserve">
<path fill="#EBEBEB" d="M7.087,0C3.189,0,0,3.189,0,7.087s3.189,7.087,7.087,7.087s7.087-3.189,7.087-7.087S10.984,0,7.087,0z
	 M8.15,7.574C8.105,8.15,7.884,8.726,7.485,9.124c-1.063,1.02-2.923,1.02-3.986-0.044C2.437,8.017,2.437,6.157,3.544,5.094
	c0.797-0.797,1.948-0.975,2.967-0.576l0.398,0.222L7.353,5.05L6.644,5.758L6.378,5.581C5.759,5.183,4.872,5.271,4.297,5.847
	c-0.665,0.665-0.709,1.86,0,2.569c0.664,0.708,1.86,0.708,2.48,0c0.177-0.178,0.354-0.443,0.398-0.709V7.618H5.581V6.732h2.524
	L8.15,6.954V7.574z M11.472,7.485h-0.797v0.797H9.877V7.485H9.08V6.688h0.797V5.891h0.798v0.798h0.797V7.485z"/>
<g>
</g>
<g>
</g>
<g>
</g>
<g>
</g>
<g>
</g>
<g>
</g>
</svg>
