<?xml version="1.0" encoding="utf-8"?>
<!-- Generator: Adobe Illustrator 16.0.0, SVG Export Plug-In . SVG Version: 6.00 Build 0)  -->
<!DOCTYPE svg PUBLIC "-//W3C//DTD SVG 1.1//EN" "http://www.w3.org/Graphics/SVG/1.1/DTD/svg11.dtd">
<svg version="1.1" id="Слой_1" xmlns="http://www.w3.org/2000/svg" xmlns:xlink="http://www.w3.org/1999/xlink" x="0px" y="0px"
	 width="14.174px" height="14.174px" viewBox="0 0 14.174 14.174" enable-background="new 0 0 14.174 14.174" xml:space="preserve">
<g>
	<path fill="#EBEBEB" d="M7.745,6.464V6.45c-0.004,0.006-0.007,0.01-0.01,0.015H7.745z"/>
	<path fill="#EBEBEB" d="M7.087,0C3.173,0,0,3.173,0,7.086s3.173,7.087,7.087,7.087S14.174,11,14.174,7.086S11.001,0,7.087,0z
		 M5.583,10.043h-1.39V5.857h1.39V10.043z M4.889,5.286H4.878c-0.467,0-0.768-0.322-0.768-0.723c0-0.412,0.311-0.724,0.786-0.724
		c0.477,0,0.769,0.312,0.779,0.724C5.676,4.964,5.373,5.286,4.889,5.286z M10.601,10.043H9.209v-2.24
		c0-0.562-0.201-0.946-0.705-0.946c-0.384,0-0.612,0.259-0.714,0.509C7.754,7.455,7.745,7.58,7.745,7.705v2.338H6.353
		c0,0,0.019-3.793,0-4.186h1.393V6.45C7.931,6.166,8.261,5.76,9,5.76c0.914,0,1.601,0.597,1.601,1.883V10.043z"/>
</g>
<g>
</g>
<g>
</g>
<g>
</g>
<g>
</g>
<g>
</g>
<g>
</g>
</svg>
