<?xml version="1.0" encoding="utf-8"?>
<!-- Generator: Adobe Illustrator 16.0.0, SVG Export Plug-In . SVG Version: 6.00 Build 0)  -->
<!DOCTYPE svg PUBLIC "-//W3C//DTD SVG 1.1//EN" "http://www.w3.org/Graphics/SVG/1.1/DTD/svg11.dtd">
<svg version="1.1" id="Слой_1" xmlns="http://www.w3.org/2000/svg" xmlns:xlink="http://www.w3.org/1999/xlink" x="0px" y="0px"
	 width="40.08px" height="40.191px" viewBox="0 0 40.08 40.191" enable-background="new 0 0 40.08 40.191" xml:space="preserve">
<path fill="#EF4445" d="M20.043,25.66c-3.059,0-5.549-2.494-5.549-5.565c0-3.07,2.49-5.563,5.549-5.563
	c3.058,0,5.544,2.494,5.544,5.563C25.587,23.166,23.101,25.66,20.043,25.66z M20.043,15.974c-2.268,0-4.111,1.85-4.111,4.122
	c0,2.271,1.843,4.123,4.111,4.123c2.263,0,4.106-1.851,4.106-4.123C24.149,17.823,22.308,15.974,20.043,15.974z"/>
<path fill="#EF4445" d="M17.626,40.192c-0.329,0-0.616-0.226-0.697-0.545l-1.237-4.963c-0.963-0.298-1.913-0.704-2.832-1.205
	l-4.401,2.65c-0.282,0.17-0.645,0.123-0.877-0.106l-3.419-3.431c-0.232-0.232-0.277-0.595-0.107-0.878l2.642-4.407
	c-0.491-0.912-0.885-1.861-1.177-2.838L0.545,23.22C0.227,23.14,0,22.85,0,22.522v-4.844c0-0.333,0.227-0.621,0.545-0.7l4.946-1.238
	c0.303-0.976,0.708-1.929,1.203-2.844L4.054,8.48c-0.17-0.285-0.125-0.647,0.107-0.882l3.414-3.423
	C7.81,3.94,8.172,3.892,8.455,4.068l4.4,2.646c0.906-0.486,1.854-0.886,2.827-1.178l1.243-4.99C17.005,0.226,17.292,0,17.622,0
	h4.831c0.329,0,0.618,0.226,0.696,0.547l1.238,4.967c0.971,0.303,1.92,0.708,2.828,1.197l4.406-2.651
	c0.277-0.163,0.643-0.12,0.878,0.11l3.414,3.423c0.235,0.233,0.278,0.596,0.108,0.882l-2.642,4.419
	c0.486,0.906,0.88,1.855,1.173,2.826l4.979,1.252c0.321,0.078,0.546,0.369,0.546,0.699v4.84c0,0.33-0.225,0.621-0.546,0.698
	l-4.979,1.251c-0.293,0.979-0.688,1.929-1.17,2.829l2.645,4.416c0.168,0.286,0.125,0.648-0.109,0.882l-3.415,3.431
	c-0.233,0.232-0.599,0.271-0.877,0.109l-4.405-2.652c-0.91,0.498-1.859,0.898-2.832,1.205l-1.232,4.963
	c-0.081,0.319-0.368,0.544-0.7,0.544L17.626,40.192L17.626,40.192z M12.847,31.925c0.123,0,0.248,0.031,0.36,0.097
	c1.055,0.609,2.159,1.078,3.278,1.391c0.248,0.069,0.438,0.271,0.504,0.521l1.201,4.815l3.708-0.003l1.197-4.817
	c0.063-0.248,0.254-0.448,0.502-0.518c1.135-0.32,2.236-0.789,3.277-1.393c0.227-0.134,0.504-0.13,0.729,0.003l4.28,2.58
	l2.623-2.635l-2.571-4.289c-0.136-0.227-0.136-0.506-0.008-0.734c0.594-1.027,1.047-2.125,1.355-3.27
	c0.068-0.251,0.266-0.447,0.519-0.509l4.839-1.218v-3.714l-4.839-1.215c-0.253-0.062-0.45-0.258-0.519-0.511
	c-0.307-1.133-0.762-2.236-1.355-3.272c-0.128-0.224-0.125-0.503,0.008-0.729l2.566-4.29L31.88,5.589l-4.279,2.576
	C27.378,8.3,27.103,8.306,26.872,8.17c-1.044-0.604-2.146-1.071-3.279-1.393c-0.248-0.067-0.438-0.266-0.501-0.517l-1.2-4.819
	h-3.708L16.977,6.29c-0.063,0.252-0.258,0.454-0.509,0.521c-1.136,0.311-2.234,0.768-3.268,1.362
	c-0.225,0.134-0.501,0.131-0.729-0.008L8.196,5.591L5.575,8.222l2.566,4.285c0.136,0.227,0.136,0.506,0.005,0.731
	c-0.603,1.054-1.073,2.161-1.389,3.293c-0.071,0.253-0.269,0.443-0.52,0.507l-4.8,1.203v3.715l4.834,1.215
	c0.253,0.063,0.452,0.259,0.52,0.511c0.308,1.136,0.762,2.237,1.36,3.275c0.13,0.227,0.127,0.508-0.008,0.73l-2.566,4.285
	l2.624,2.632l4.275-2.576C12.591,31.96,12.719,31.925,12.847,31.925z"/>
</svg>
