<?xml version="1.0" encoding="utf-8"?>
<!-- Generator: Adobe Illustrator 16.0.0, SVG Export Plug-In . SVG Version: 6.00 Build 0)  -->
<!DOCTYPE svg PUBLIC "-//W3C//DTD SVG 1.1//EN" "http://www.w3.org/Graphics/SVG/1.1/DTD/svg11.dtd">
<svg version="1.1" id="Слой_1" xmlns="http://www.w3.org/2000/svg" xmlns:xlink="http://www.w3.org/1999/xlink" x="0px" y="0px"
	 width="14.173px" height="14.174px" viewBox="0 0 14.173 14.174" enable-background="new 0 0 14.173 14.174" xml:space="preserve">
<g>
	<path fill="#EBEBEB" d="M7.083,0C3.174,0,0,3.174,0,7.083c0,3.915,3.174,7.09,7.083,7.09c3.915,0,7.09-3.176,7.09-7.09
		C14.173,3.17,10.999,0,7.083,0L7.083,0z M10.196,5.711L10.2,5.908c0,2.021-1.539,4.352-4.353,4.352
		c-0.864,0-1.667-0.254-2.343-0.689c0.118,0.016,0.24,0.023,0.364,0.023c0.717,0,1.376-0.246,1.899-0.656
		c-0.67-0.012-1.231-0.455-1.429-1.063c0.095,0.02,0.189,0.027,0.289,0.027c0.14,0,0.276-0.02,0.402-0.053
		C4.331,7.709,3.804,7.091,3.804,6.352v-0.02c0.205,0.115,0.44,0.183,0.69,0.19C4.084,6.25,3.816,5.779,3.816,5.252
		c0-0.281,0.075-0.545,0.208-0.77c0.75,0.924,1.88,1.531,3.15,1.596c-0.027-0.111-0.038-0.229-0.038-0.35
		c0-0.841,0.683-1.528,1.528-1.528c0.439,0,0.838,0.187,1.118,0.482c0.345-0.068,0.675-0.193,0.971-0.368
		c-0.114,0.357-0.356,0.656-0.675,0.845c0.311-0.038,0.606-0.121,0.879-0.243C10.753,5.226,10.492,5.495,10.196,5.711L10.196,5.711z
		 M10.196,5.711"/>
</g>
<g>
</g>
<g>
</g>
<g>
</g>
<g>
</g>
<g>
</g>
<g>
</g>
</svg>
