<?xml version="1.0" encoding="utf-8"?>
<!-- Generator: Adobe Illustrator 16.0.0, SVG Export Plug-In . SVG Version: 6.00 Build 0)  -->
<!DOCTYPE svg PUBLIC "-//W3C//DTD SVG 1.1//EN" "http://www.w3.org/Graphics/SVG/1.1/DTD/svg11.dtd">
<svg version="1.1" id="Слой_1" xmlns="http://www.w3.org/2000/svg" xmlns:xlink="http://www.w3.org/1999/xlink" x="0px" y="0px"
	 width="39.26px" height="37.001px" viewBox="0 0 39.26 37.001" enable-background="new 0 0 39.26 37.001" xml:space="preserve">
<path fill-rule="evenodd" clip-rule="evenodd" fill="#EF4445" d="M39.208,12.91c-1.049-2.813-2.599-5.356-4.609-7.558
	c-1.998-2.188-4.39-3.962-7.113-5.27c-0.306-0.146-0.673-0.094-0.925,0.139L9.073,16.182l-2.02,1.844
	c-0.109,0.087-0.203,0.204-0.261,0.344c-0.009,0.021-0.018,0.049-0.027,0.073l-4.703,12.21L0.056,35.87
	c-0.115,0.295-0.049,0.626,0.164,0.862c0.161,0.177,0.385,0.27,0.615,0.27c0.076,0,0.155-0.009,0.23-0.033l5.379-1.524l12.649-3.587
	c0.079-0.021,0.158-0.057,0.23-0.103c0.04-0.028,0.079-0.058,0.115-0.088l2.065-1.885L38.99,13.818
	C39.241,13.589,39.326,13.228,39.208,12.91z M3.288,32.116c0.033,0.022,0.073,0.035,0.106,0.053
	c0.358,0.225,0.691,0.473,0.967,0.778c0.276,0.303,0.494,0.656,0.685,1.03c0.021,0.033,0.03,0.075,0.045,0.113l-2.877,0.817
	L3.288,32.116z M18.454,30.302L6.741,33.624c-0.033-0.073-0.091-0.126-0.127-0.197c-0.27-0.587-0.594-1.139-1.019-1.606
	c-0.428-0.466-0.949-0.836-1.51-1.16c-0.07-0.041-0.112-0.103-0.182-0.14l4.372-11.352l1.31-1.189l1.058,1.157l9.114,9.975
	L18.454,30.302z M20.992,27.984l-2.647-2.896l13.902-12.684c0.179-0.167,0.27-0.392,0.27-0.622c0-0.197-0.069-0.4-0.218-0.56
	c-0.309-0.34-0.84-0.363-1.179-0.053L17.217,23.855l-0.542-0.597l-2.083-2.284L28.487,8.291c0.182-0.168,0.273-0.392,0.273-0.623
	c0-0.197-0.073-0.399-0.218-0.56c-0.313-0.339-0.843-0.36-1.183-0.052L13.46,19.743l-2.641-2.894L27.265,1.836
	c2.319,1.188,4.372,2.744,6.1,4.646c1.74,1.902,3.105,4.084,4.075,6.49L20.992,27.984z"/>
</svg>
